<svg xmlns="http://www.w3.org/2000/svg" viewBox="0 0 24 24">
  <path
    fill="currentColor"
    d="M7.25 3A3.25 3.25 0 0 0 4 6.25v11.5A3.25 3.25 0 0 0 7.25 21h9.5A3.25 3.25 0 0 0 20 17.75V6.25A3.25 3.25 0 0 0 16.75 3h-9.5Zm-.75 4.25c0-.41.34-.75.75-.75h3.5c.41 0 .75.34.75.75v3.5c0 .41-.34.75-.75.75h-3.5a.75.75 0 0 1-.75-.75v-3.5Zm6 0c0-.41.34-.75.75-.75h3.5c.41 0 .75.34.75.75v1.5a.75.75 0 0 1-.75.75h-3.5a.75.75 0 0 1-.75-.75v-1.5Zm0 5c0-.41.34-.75.75-.75h3.5c.41 0 .75.34.75.75v4.5a.75.75 0 0 1-.75.75h-3.5a.75.75 0 0 1-.75-.75v-4.5Zm-6 1.5c0-.41.34-.75.75-.75h3.5c.41 0 .75.34.75.75v3a.75.75 0 0 1-.75.75h-3.5a.75.75 0 0 1-.75-.75v-3Z"
  />
</svg>
