<svg width="102" height="100" viewBox="0 0 102 100" fill="none" xmlns="http://www.w3.org/2000/svg">
<g filter="url(#filter0_f_1004_14756)">
<ellipse cx="50.8981" cy="49.8804" rx="44.8981" ry="43.8804" fill="url(#paint0_radial_1004_14756)" fill-opacity="0.6"/>
</g>
<path d="M96.7097 66.0527C96.858 64.7213 94.9867 63.7308 93.1302 64.1579L91.8704 64.4478L88.2911 65.2708C87.8542 65.3713 87.7862 65.9858 88.1963 66.122L91.5597 67.2373L92.744 67.6295C94.4896 68.2086 96.5614 67.3842 96.7097 66.0527Z" fill="url(#paint1_linear_1004_14756)"/>
<path d="M91.6097 60.5778C91.0588 59.9382 89.7531 60.2965 89.1121 61.263L88.6769 61.9188L87.4402 63.7808C87.2893 64.0077 87.5438 64.3032 87.7924 64.1895L89.8305 63.2576L90.5486 62.9294C91.6062 62.4464 92.1606 61.2174 91.6097 60.5778Z" fill="url(#paint2_linear_1004_14756)"/>
<path d="M11.7109 12.9558C13.1749 11.2882 16.8339 12.3033 18.7106 14.8973L19.9839 16.6576L23.6024 21.6581C24.0441 22.2686 23.3678 23.0378 22.6664 22.7242L16.9169 20.1513L14.8929 19.2447C11.9086 17.9097 10.247 14.6235 11.7109 12.9558Z" fill="url(#paint3_linear_1004_14756)"/>
<path d="M23.6054 11.6531C25.1156 11.5602 26.3634 13.4497 25.9926 15.2673L25.7412 16.5009L25.0289 20.0046C24.9424 20.4318 24.2447 20.4747 24.0637 20.0637L22.5795 16.6949L22.0564 15.508C21.2856 13.7604 22.0953 11.746 23.6054 11.6531Z" fill="url(#paint4_linear_1004_14756)"/>
<path d="M15.7698 23.5825C15.7914 22.6991 17.1105 22.1508 18.2929 22.5335L19.0955 22.793L21.375 23.5293C21.653 23.6189 21.643 24.027 21.3611 24.0939L19.05 24.6425L18.2358 24.8359C17.0368 25.1211 15.7483 24.466 15.7698 23.5825Z" fill="url(#paint5_linear_1004_14756)"/>
<path d="M86.1905 6.49442C86.4368 6.00779 87.1739 6.20079 87.1383 6.74263L86.8893 10.532C86.8762 10.7328 86.9856 10.9207 87.1668 11.0083L90.6062 12.6716C91.0989 12.9098 90.8953 13.6523 90.3467 13.6179L86.5172 13.3776C86.3154 13.365 86.1246 13.4742 86.0332 13.6546L84.3102 17.0579C84.0638 17.5445 83.3268 17.3515 83.3624 16.8097L83.6113 13.0203C83.6245 12.8195 83.5151 12.6316 83.3339 12.544L79.8945 10.8807C79.4018 10.6425 79.6054 9.89998 80.154 9.9344L83.9835 10.1747C84.1852 10.1873 84.3761 10.0781 84.4674 9.89774L86.1905 6.49442Z" fill="url(#paint6_radial_1004_14756)"/>
<path d="M89.9933 24.6123C90.2397 24.1257 90.9767 24.3187 90.9411 24.8605L90.8648 26.0222C90.8516 26.2231 90.961 26.4109 91.1423 26.4985L92.167 26.9941C92.6597 27.2323 92.4561 27.9748 91.9075 27.9404L90.7666 27.8688C90.5648 27.8562 90.3739 27.9654 90.2826 28.1458L89.7544 29.1891C89.508 29.6758 88.771 29.4828 88.8066 28.9409L88.8829 27.7792C88.8961 27.5784 88.7867 27.3905 88.6055 27.3029L87.5808 26.8073C87.088 26.5691 87.2916 25.8266 87.8402 25.861L88.9811 25.9326C89.1829 25.9453 89.3738 25.836 89.4651 25.6557L89.9933 24.6123Z" fill="url(#paint7_radial_1004_14756)"/>
<path d="M71.1847 7.81264C71.4311 7.326 72.1681 7.51901 72.1325 8.06084L71.9976 10.1157C71.9844 10.3165 72.0938 10.5044 72.275 10.592L74.1204 11.4845C74.6131 11.7227 74.4096 12.4652 73.861 12.4308L71.8062 12.3019C71.6044 12.2892 71.4136 12.3984 71.3223 12.5788L70.3879 14.4243C70.1415 14.911 69.4045 14.718 69.4401 14.1761L69.5751 12.1213C69.5883 11.9204 69.4789 11.7326 69.2976 11.6449L67.4522 10.7525C66.9595 10.5142 67.1631 9.77174 67.7117 9.80616L69.7664 9.93509C69.9682 9.94775 70.1591 9.83853 70.2504 9.65814L71.1847 7.81264Z" fill="url(#paint8_radial_1004_14756)"/>
<path d="M13.429 80.3352C13.3798 79.7944 14.1121 79.5837 14.3705 80.0643L16.7995 84.5798C16.8953 84.7579 17.0889 84.8625 17.2903 84.845L22.4435 84.3975C22.9911 84.3499 23.2131 85.087 22.7265 85.337L18.1473 87.6898C17.9682 87.7818 17.8635 87.9722 17.8818 88.1726L18.3438 93.2541C18.393 93.7949 17.6607 94.0056 17.4022 93.5251L14.9733 89.0095C14.8775 88.8314 14.6839 88.7268 14.4825 88.7443L9.3293 89.1919C8.78165 89.2394 8.55962 88.5024 9.04628 88.2523L13.6255 85.8995C13.8045 85.8075 13.9092 85.6171 13.891 85.4167L13.429 80.3352Z" fill="url(#paint9_radial_1004_14756)"/>
<path d="M10.9221 69.0014C11.2881 68.5946 11.9532 68.9698 11.7757 69.483L11.0394 71.6124C10.9737 71.8023 11.0302 72.0113 11.1826 72.1423L12.8889 73.6087C13.3027 73.9643 12.9119 74.6257 12.39 74.4533L10.2374 73.7423C10.0451 73.6788 9.83168 73.7355 9.69623 73.886L8.17754 75.574C7.81152 75.9808 7.1465 75.6055 7.32397 75.0923L8.06031 72.9629C8.12598 72.773 8.06949 72.564 7.91707 72.433L6.21074 70.9666C5.79701 70.611 6.18775 69.9496 6.70968 70.122L8.86227 70.833C9.05456 70.8965 9.26798 70.8399 9.40344 70.6893L10.9221 69.0014Z" fill="url(#paint10_radial_1004_14756)"/>
<rect x="13.4076" y="15.0332" width="73.7274" height="71.1325" rx="35.5662" fill="url(#paint11_radial_1004_14756)"/>
<g filter="url(#filter1_d_1004_14756)">
<path opacity="0.6" fill-rule="evenodd" clip-rule="evenodd" d="M73.6258 90.7851C81.779 90.7851 88.3884 84.3255 88.3884 76.3571C88.3884 68.3888 81.779 61.9292 73.6258 61.9292C65.4727 61.9292 58.8633 68.3888 58.8633 76.3571C58.8633 84.3255 65.4727 90.7851 73.6258 90.7851Z" fill="#ADFFA6"/>
<path fill-rule="evenodd" clip-rule="evenodd" d="M82.1375 70.9317C82.5987 71.3927 82.5987 72.1401 82.1375 72.6011L71.5084 83.2253C71.0472 83.6863 70.2994 83.6863 69.8382 83.2253L65.1142 78.5035C64.653 78.0425 64.653 77.295 65.1142 76.834C65.5754 76.373 66.3232 76.373 66.7844 76.834L70.6733 80.7212L80.4673 70.9317C80.9285 70.4707 81.6763 70.4707 82.1375 70.9317Z" fill="white"/>
</g>
<path d="M58.0324 54.4426C58.8477 53.4466 60.3345 53.285 61.3536 54.0817C62.3727 54.8785 62.538 56.3317 61.7228 57.3277C58.5521 61.2012 54.4972 63.391 50.2482 63.391C45.9794 63.391 42.0165 61.1805 39.0679 57.251C38.2962 56.2225 38.5234 54.7774 39.5756 54.0231C40.628 53.2689 42.1066 53.4909 42.8784 54.5193C45.1285 57.5181 47.7823 58.772 50.2482 58.772C52.7338 58.772 55.5318 57.4975 58.0324 54.4426Z" fill="white"/>
<path d="M38.1377 46.6473C39.7038 46.6473 40.9733 45.4065 40.9733 43.8759C40.9733 42.3453 39.7038 41.1045 38.1377 41.1045C36.5716 41.1045 35.302 42.3453 35.302 43.8759C35.302 45.4065 36.5716 46.6473 38.1377 46.6473Z" fill="white"/>
<path d="M62.7134 46.6473C64.2795 46.6473 65.549 45.4065 65.549 43.8759C65.549 42.3453 64.2795 41.1045 62.7134 41.1045C61.1473 41.1045 59.8777 42.3453 59.8777 43.8759C59.8777 45.4065 61.1473 46.6473 62.7134 46.6473Z" fill="white"/>
<defs>
<filter id="filter0_f_1004_14756" x="0" y="0" width="101.796" height="99.7607" filterUnits="userSpaceOnUse" color-interpolation-filters="sRGB">
<feFlood flood-opacity="0" result="BackgroundImageFix"/>
<feBlend mode="normal" in="SourceGraphic" in2="BackgroundImageFix" result="shape"/>
<feGaussianBlur stdDeviation="3" result="effect1_foregroundBlur_1004_14756"/>
</filter>
<filter id="filter1_d_1004_14756" x="54.8633" y="57.9292" width="35.5251" height="34.856" filterUnits="userSpaceOnUse" color-interpolation-filters="sRGB">
<feFlood flood-opacity="0" result="BackgroundImageFix"/>
<feColorMatrix in="SourceAlpha" type="matrix" values="0 0 0 0 0 0 0 0 0 0 0 0 0 0 0 0 0 0 127 0" result="hardAlpha"/>
<feOffset dx="-1" dy="-1"/>
<feGaussianBlur stdDeviation="1.5"/>
<feColorMatrix type="matrix" values="0 0 0 0 0 0 0 0 0 0 0 0 0 0 0 0 0 0 0.1 0"/>
<feBlend mode="normal" in2="BackgroundImageFix" result="effect1_dropShadow_1004_14756"/>
<feBlend mode="normal" in="SourceGraphic" in2="effect1_dropShadow_1004_14756" result="shape"/>
</filter>
<radialGradient id="paint0_radial_1004_14756" cx="0" cy="0" r="1" gradientUnits="userSpaceOnUse" gradientTransform="translate(50.8981 49.8804) rotate(90) scale(43.9484 44.9677)">
<stop stop-color="#2EFF8C"/>
<stop offset="1" stop-color="#E1FFE1" stop-opacity="0.5"/>
</radialGradient>
<linearGradient id="paint1_linear_1004_14756" x1="95.93" y1="67.5931" x2="89.1813" y2="63.5175" gradientUnits="userSpaceOnUse">
<stop stop-color="#E1FFE1"/>
<stop offset="1" stop-color="#73FF83"/>
</linearGradient>
<linearGradient id="paint2_linear_1004_14756" x1="90.9099" y1="63.1185" x2="88.6603" y2="61.76" gradientUnits="userSpaceOnUse">
<stop stop-color="#E1FFE1"/>
<stop offset="1" stop-color="#73FF83"/>
</linearGradient>
<linearGradient id="paint3_linear_1004_14756" x1="10.806" y1="15.5773" x2="24.529" y2="19.064" gradientUnits="userSpaceOnUse">
<stop stop-color="#E1FFE1"/>
<stop offset="1" stop-color="#73FF83"/>
</linearGradient>
<linearGradient id="paint4_linear_1004_14756" x1="21.3526" y1="15.3097" x2="25.927" y2="16.4719" gradientUnits="userSpaceOnUse">
<stop stop-color="#E1FFE1"/>
<stop offset="1" stop-color="#73FF83"/>
</linearGradient>
<linearGradient id="paint5_linear_1004_14756" x1="18.0658" y1="25.2254" x2="19.0158" y2="22.6566" gradientUnits="userSpaceOnUse">
<stop stop-color="#E1FFE1"/>
<stop offset="1" stop-color="#73FF83"/>
</linearGradient>
<radialGradient id="paint6_radial_1004_14756" cx="0" cy="0" r="1" gradientTransform="matrix(-2.04798 7.46991 -7.64316 -2.00156 85.2503 11.7762)" gradientUnits="userSpaceOnUse">
<stop stop-color="#73FF83"/>
<stop offset="1" stop-color="#E1FFE1"/>
</radialGradient>
<radialGradient id="paint7_radial_1004_14756" cx="0" cy="0" r="1" gradientTransform="matrix(-1.22732 4.4766 -4.58042 -1.1995 89.8739 26.9007)" gradientUnits="userSpaceOnUse">
<stop stop-color="#73FF83"/>
<stop offset="1" stop-color="#E1FFE1"/>
</radialGradient>
<radialGradient id="paint8_radial_1004_14756" cx="0" cy="0" r="1" gradientTransform="matrix(-1.50626 5.49402 -5.62144 -1.47212 70.7863 11.1185)" gradientUnits="userSpaceOnUse">
<stop stop-color="#73FF83"/>
<stop offset="1" stop-color="#E1FFE1"/>
</radialGradient>
<radialGradient id="paint9_radial_1004_14756" cx="0" cy="0" r="1" gradientTransform="matrix(2.67862 8.89205 -9.09827 2.6179 15.8864 86.7947)" gradientUnits="userSpaceOnUse">
<stop stop-color="#73FF83"/>
<stop offset="1" stop-color="#E1FFE1"/>
</radialGradient>
<radialGradient id="paint10_radial_1004_14756" cx="0" cy="0" r="1" gradientTransform="matrix(-3.02924 5.12787 -5.2468 -2.96058 9.54983 72.2877)" gradientUnits="userSpaceOnUse">
<stop stop-color="#73FF83"/>
<stop offset="1" stop-color="#E1FFE1"/>
</radialGradient>
<radialGradient id="paint11_radial_1004_14756" cx="0" cy="0" r="1" gradientUnits="userSpaceOnUse" gradientTransform="translate(54.6949 51.381) rotate(89.9309) scale(65.4235 63.8606)">
<stop stop-color="#BDFFB8"/>
<stop offset="1" stop-color="#00DA33"/>
</radialGradient>
</defs>
</svg>
