<svg width="102" height="103" viewBox="0 0 102 103" fill="none" xmlns="http://www.w3.org/2000/svg">
<g filter="url(#filter0_f_1004_14767)">
<ellipse cx="50.7059" cy="53.6827" rx="44.7059" ry="42.6168" fill="url(#paint0_radial_1004_14767)" fill-opacity="0.6"/>
</g>
<rect x="15.4117" y="18.2437" width="73.4118" height="69.0841" rx="34.5421" fill="url(#paint1_radial_1004_14767)"/>
<g filter="url(#filter1_d_1004_14767)">
<path opacity="0.6" fill-rule="evenodd" clip-rule="evenodd" d="M75.3723 91.814C83.4906 91.814 90.0717 85.5404 90.0717 77.8015C90.0717 70.0627 83.4906 63.7891 75.3723 63.7891C67.2541 63.7891 60.673 70.0627 60.673 77.8015C60.673 85.5404 67.2541 91.814 75.3723 91.814Z" fill="#BFDDFF"/>
<path d="M75.6471 87.3281C74.6073 87.3281 73.7648 86.0866 73.7648 84.5546V76.6436C73.7648 75.1116 74.6073 73.8701 75.6471 73.8701C76.6868 73.8701 77.5294 75.1116 77.5294 76.6436V84.5546C77.5384 86.0734 76.6868 87.3281 75.6471 87.3281Z" fill="white"/>
<path d="M75.6471 72.0756C76.6867 72.0756 77.5295 71.2722 77.5295 70.2812C77.5295 69.2902 76.6867 68.4868 75.6471 68.4868C74.6075 68.4868 73.7648 69.2902 73.7648 70.2812C73.7648 71.2722 74.6075 72.0756 75.6471 72.0756Z" fill="white"/>
</g>
<path d="M39.8824 49.6454C41.4418 49.6454 42.7059 48.4403 42.7059 46.9538C42.7059 45.4673 41.4418 44.2622 39.8824 44.2622C38.323 44.2622 37.0588 45.4673 37.0588 46.9538C37.0588 48.4403 38.323 49.6454 39.8824 49.6454Z" fill="white"/>
<path d="M64.3529 49.6454C65.9123 49.6454 67.1765 48.4403 67.1765 46.9538C67.1765 45.4673 65.9123 44.2622 64.3529 44.2622C62.7936 44.2622 61.5294 45.4673 61.5294 46.9538C61.5294 48.4403 62.7936 49.6454 64.3529 49.6454Z" fill="white"/>
<ellipse cx="9.2941" cy="76.1126" rx="2.35294" ry="2.24299" fill="url(#paint2_radial_1004_14767)"/>
<ellipse cx="10.2353" cy="55.4771" rx="1.41176" ry="1.34579" fill="url(#paint3_radial_1004_14767)"/>
<ellipse cx="8.82354" cy="66.6923" rx="3.76471" ry="3.58878" fill="url(#paint4_radial_1004_14767)"/>
<ellipse cx="19.1764" cy="81.9445" rx="2.82353" ry="2.69159" fill="url(#paint5_radial_1004_14767)"/>
<ellipse cx="9.29409" cy="83.2901" rx="1.41176" ry="1.34579" fill="url(#paint6_radial_1004_14767)"/>
<ellipse cx="93.0589" cy="85.0851" rx="1.41176" ry="1.34579" fill="url(#paint7_radial_1004_14767)"/>
<ellipse cx="97.2941" cy="75.6645" rx="3.76471" ry="3.58878" fill="url(#paint8_radial_1004_14767)"/>
<g filter="url(#filter2_f_1004_14767)">
<path d="M22.7644 11.9634C24.4213 11.9634 25.7644 13.3065 25.7644 14.9634V19.73C25.7643 21.3867 24.4212 22.73 22.7644 22.73H21.6365C21.7047 23.0921 21.8159 23.5498 21.9998 24.0757C22.4704 25.4214 23.4119 26.3188 23.4119 26.3188C21.6239 25.7507 20.112 24.0198 19.2478 22.73H9.94116C8.28439 22.73 6.94129 21.3867 6.94116 19.73V14.9634C6.94116 13.3065 8.28431 11.9634 9.94116 11.9634H22.7644Z" fill="url(#paint9_linear_1004_14767)"/>
<path d="M81.4708 2.99121C79.814 2.99121 78.4708 4.33436 78.4708 5.99121V15.4678C78.4708 17.1246 79.814 18.4678 81.4708 18.4678H82.5988C82.5305 18.9884 82.4194 19.6462 82.2355 20.4023C81.7649 22.3369 80.8234 23.627 80.8234 23.627C82.6116 22.8101 84.1233 20.3219 84.9874 18.4678H94.2941C95.9509 18.4678 97.2941 17.1246 97.2941 15.4678V5.99121C97.2941 4.33436 95.9509 2.99121 94.2941 2.99121H81.4708Z" fill="url(#paint10_linear_1004_14767)"/>
<path d="M8.59998 28.1128C10.445 28.1128 11.9416 29.5386 11.9418 31.2974C11.9418 32.2657 11.4862 33.1312 10.7709 33.7153C10.8182 33.7546 10.8666 33.7961 10.9183 33.8364C11.5938 34.3632 12.3544 34.5299 12.3676 34.5327C11.5503 34.7247 10.5926 34.5375 9.80212 34.269C9.42911 34.4062 9.02373 34.4829 8.59998 34.4829C6.75506 34.4827 5.25916 33.0561 5.25916 31.2974C5.25937 29.5388 6.75519 28.113 8.59998 28.1128Z" fill="url(#paint11_linear_1004_14767)"/>
<path d="M95.1907 23.627C92.0722 23.6272 89.5444 26.037 89.5442 29.0098C89.5442 30.6465 90.3116 32.1113 91.5208 33.0986C91.4413 33.1644 91.3604 33.2341 91.2737 33.3018C90.1299 34.1937 88.8412 34.4747 88.8235 34.4785C90.2053 34.8031 91.825 34.4872 93.1614 34.0332C93.7913 34.2647 94.4751 34.3935 95.1907 34.3936C98.3095 34.3936 100.838 31.9828 100.838 29.0098C100.838 26.0369 98.3093 23.627 95.1907 23.627Z" fill="url(#paint12_linear_1004_14767)"/>
<path d="M69.7789 0.299805C66.6605 0.300096 64.1326 3.69409 64.1324 7.88086C64.1324 10.1857 64.9001 12.2492 66.109 13.6396C66.0294 13.7325 65.9489 13.8293 65.8619 13.9248C64.7101 15.1899 63.4117 15.584 63.4117 15.584C64.7934 16.041 66.4124 15.5944 67.7487 14.9551C68.379 15.2816 69.0628 15.4628 69.7789 15.4629C72.8977 15.4629 75.4264 12.068 75.4264 7.88086C75.4262 3.69391 72.8976 0.299805 69.7789 0.299805Z" fill="url(#paint13_linear_1004_14767)"/>
</g>
<defs>
<filter id="filter0_f_1004_14767" x="0" y="5.06592" width="101.412" height="97.2339" filterUnits="userSpaceOnUse" color-interpolation-filters="sRGB">
<feFlood flood-opacity="0" result="BackgroundImageFix"/>
<feBlend mode="normal" in="SourceGraphic" in2="BackgroundImageFix" result="shape"/>
<feGaussianBlur stdDeviation="3" result="effect1_foregroundBlur_1004_14767"/>
</filter>
<filter id="filter1_d_1004_14767" x="56.673" y="59.7891" width="35.3987" height="34.0249" filterUnits="userSpaceOnUse" color-interpolation-filters="sRGB">
<feFlood flood-opacity="0" result="BackgroundImageFix"/>
<feColorMatrix in="SourceAlpha" type="matrix" values="0 0 0 0 0 0 0 0 0 0 0 0 0 0 0 0 0 0 127 0" result="hardAlpha"/>
<feOffset dx="-1" dy="-1"/>
<feGaussianBlur stdDeviation="1.5"/>
<feColorMatrix type="matrix" values="0 0 0 0 0 0 0 0 0 0 0 0 0 0 0 0 0 0 0.1 0"/>
<feBlend mode="normal" in2="BackgroundImageFix" result="effect1_dropShadow_1004_14767"/>
<feBlend mode="normal" in="SourceGraphic" in2="effect1_dropShadow_1004_14767" result="shape"/>
</filter>
<filter id="filter2_f_1004_14767" x="4.95916" y="-0.000195324" width="96.179" height="34.912" filterUnits="userSpaceOnUse" color-interpolation-filters="sRGB">
<feFlood flood-opacity="0" result="BackgroundImageFix"/>
<feBlend mode="normal" in="SourceGraphic" in2="BackgroundImageFix" result="shape"/>
<feGaussianBlur stdDeviation="0.15" result="effect1_foregroundBlur_1004_14767"/>
</filter>
<radialGradient id="paint0_radial_1004_14767" cx="0" cy="0" r="1" gradientUnits="userSpaceOnUse" gradientTransform="translate(50.7059 53.6827) rotate(90) scale(42.6829 44.7752)">
<stop stop-color="#0077FF"/>
<stop offset="1" stop-color="#E1EFFF"/>
</radialGradient>
<radialGradient id="paint1_radial_1004_14767" cx="0" cy="0" r="1" gradientUnits="userSpaceOnUse" gradientTransform="translate(52.1176 52.7857) rotate(90) scale(34.5421 36.7059)">
<stop stop-color="#C7E1FF"/>
<stop offset="1" stop-color="#70A9FF"/>
</radialGradient>
<radialGradient id="paint2_radial_1004_14767" cx="0" cy="0" r="1" gradientUnits="userSpaceOnUse" gradientTransform="translate(9.2941 76.1126) rotate(90) scale(2.24299 2.35294)">
<stop stop-color="#70A9FF"/>
<stop offset="1" stop-color="#C7E1FF"/>
</radialGradient>
<radialGradient id="paint3_radial_1004_14767" cx="0" cy="0" r="1" gradientUnits="userSpaceOnUse" gradientTransform="translate(10.2353 55.4771) rotate(90) scale(1.34579 1.41176)">
<stop stop-color="#70A9FF"/>
<stop offset="1" stop-color="#C7E1FF"/>
</radialGradient>
<radialGradient id="paint4_radial_1004_14767" cx="0" cy="0" r="1" gradientUnits="userSpaceOnUse" gradientTransform="translate(8.82354 66.6923) rotate(90) scale(3.58878 3.76471)">
<stop stop-color="#70A9FF"/>
<stop offset="1" stop-color="#C7E1FF"/>
</radialGradient>
<radialGradient id="paint5_radial_1004_14767" cx="0" cy="0" r="1" gradientUnits="userSpaceOnUse" gradientTransform="translate(19.1764 81.9445) rotate(90) scale(2.69159 2.82353)">
<stop stop-color="#70A9FF"/>
<stop offset="1" stop-color="#C7E1FF"/>
</radialGradient>
<radialGradient id="paint6_radial_1004_14767" cx="0" cy="0" r="1" gradientUnits="userSpaceOnUse" gradientTransform="translate(9.29409 83.2901) rotate(90) scale(1.34579 1.41176)">
<stop stop-color="#70A9FF"/>
<stop offset="1" stop-color="#C7E1FF"/>
</radialGradient>
<radialGradient id="paint7_radial_1004_14767" cx="0" cy="0" r="1" gradientUnits="userSpaceOnUse" gradientTransform="translate(93.0589 85.0851) rotate(90) scale(1.34579 1.41176)">
<stop stop-color="#70A9FF"/>
<stop offset="1" stop-color="#C7E1FF"/>
</radialGradient>
<radialGradient id="paint8_radial_1004_14767" cx="0" cy="0" r="1" gradientUnits="userSpaceOnUse" gradientTransform="translate(97.2941 75.6645) rotate(90) scale(3.58878 3.76471)">
<stop stop-color="#70A9FF"/>
<stop offset="1" stop-color="#C7E1FF"/>
</radialGradient>
<linearGradient id="paint9_linear_1004_14767" x1="16.3528" y1="11.9634" x2="16.3528" y2="26.3188" gradientUnits="userSpaceOnUse">
<stop stop-color="#C7E1FF" stop-opacity="0.83"/>
<stop offset="1" stop-color="#70A9FF"/>
</linearGradient>
<linearGradient id="paint10_linear_1004_14767" x1="87.8824" y1="2.99121" x2="87.8824" y2="23.627" gradientUnits="userSpaceOnUse">
<stop stop-color="#C7E1FF" stop-opacity="0.83"/>
<stop offset="1" stop-color="#70A9FF"/>
</linearGradient>
<linearGradient id="paint11_linear_1004_14767" x1="8.81338" y1="28.1128" x2="8.81338" y2="34.6114" gradientUnits="userSpaceOnUse">
<stop stop-color="#C7E1FF" stop-opacity="0.83"/>
<stop offset="1" stop-color="#70A9FF"/>
</linearGradient>
<linearGradient id="paint12_linear_1004_14767" x1="94.8308" y1="23.627" x2="94.8308" y2="34.6116" gradientUnits="userSpaceOnUse">
<stop stop-color="#C7E1FF" stop-opacity="0.83"/>
<stop offset="1" stop-color="#70A9FF"/>
</linearGradient>
<linearGradient id="paint13_linear_1004_14767" x1="69.419" y1="0.299805" x2="69.419" y2="15.7709" gradientUnits="userSpaceOnUse">
<stop stop-color="#C7E1FF" stop-opacity="0.83"/>
<stop offset="1" stop-color="#70A9FF"/>
</linearGradient>
</defs>
</svg>
