<svg width="108" height="108" viewBox="0 0 108 108" fill="none" xmlns="http://www.w3.org/2000/svg">
<g filter="url(#filter0_f_1004_14745)">
<circle cx="54" cy="54" r="48" fill="url(#paint0_radial_1004_14745)" fill-opacity="0.6"/>
</g>
<rect x="15.0947" y="15.0947" width="78.8211" height="77.8105" rx="38.9053" fill="url(#paint1_radial_1004_14745)"/>
<g filter="url(#filter1_d_1004_14745)">
<path opacity="0.6" fill-rule="evenodd" clip-rule="evenodd" d="M79.4734 97.958C88.1898 97.958 95.2558 90.8919 95.2558 82.1755C95.2558 73.4591 88.1898 66.3931 79.4734 66.3931C70.757 66.3931 63.6909 73.4591 63.6909 82.1755C63.6909 90.8919 70.757 97.958 79.4734 97.958Z" fill="#FE968A"/>
<path d="M87.6726 89.05C88.125 89.5279 88.1048 90.2824 87.6271 90.735C87.1493 91.1876 86.3949 91.167 85.9421 90.6894L72.225 76.2102C71.7723 75.7323 71.7926 74.978 72.2705 74.5253C72.7484 74.0726 73.5027 74.0929 73.9554 74.5708L87.6726 89.05Z" fill="white"/>
<path d="M72.3008 89.05C71.8484 89.5279 71.8686 90.2824 72.3463 90.735C72.8241 91.1876 73.5785 91.167 74.0313 90.6894L87.7484 76.2102C88.2011 75.7323 88.1807 74.978 87.7029 74.5253C87.225 74.0726 86.4707 74.0929 86.0179 74.5708L72.3008 89.05Z" fill="white"/>
</g>
<path d="M41.3684 50.4631C43.0427 50.4631 44.4 49.1058 44.4 47.4315C44.4 45.7572 43.0427 44.3999 41.3684 44.3999C39.6941 44.3999 38.3368 45.7572 38.3368 47.4315C38.3368 49.1058 39.6941 50.4631 41.3684 50.4631Z" fill="white"/>
<path d="M67.6421 50.4631C69.3163 50.4631 70.6736 49.1058 70.6736 47.4315C70.6736 45.7572 69.3163 44.3999 67.6421 44.3999C65.9678 44.3999 64.6105 45.7572 64.6105 47.4315C64.6105 49.1058 65.9678 50.4631 67.6421 50.4631Z" fill="white"/>
<path d="M63.6483 66.8198C64.5199 67.9092 66.1094 68.086 67.1989 67.2145C68.2884 66.3429 68.4652 64.7534 67.5937 63.6639C64.2039 59.4267 59.8688 57.0313 55.3262 57.0313C50.7626 57.0313 46.5259 59.4493 43.3736 63.7477C42.5486 64.8728 42.7915 66.4535 43.9164 67.2787C45.0414 68.1037 46.6221 67.8608 47.4473 66.7359C49.8529 63.4555 52.69 62.0839 55.3262 62.0839C57.9837 62.0839 60.9749 63.4781 63.6483 66.8198Z" fill="white"/>
<path d="M97.9578 86.8423C98.7019 86.8423 99.3054 87.3597 99.3054 87.9976V89.73H100.845C101.483 89.7302 102 90.2466 102 90.8843C102 91.522 101.483 92.0394 100.845 92.0396H99.3054V93.772C99.3052 94.4096 98.7018 94.9263 97.9578 94.9263C97.2138 94.9262 96.6103 94.4096 96.6101 93.772V92.0396H95.071C94.4332 92.0396 93.9158 91.5221 93.9158 90.8843C93.9158 90.2465 94.4333 89.73 95.071 89.73H96.6101V87.9976C96.6101 87.3598 97.2137 86.8423 97.9578 86.8423Z" fill="url(#paint2_radial_1004_14745)"/>
<path d="M89.3684 96.9478C89.8334 96.9478 90.2101 97.2709 90.2102 97.6694V98.7524H91.1731C91.5716 98.7526 91.8948 99.0756 91.8948 99.4741C91.8947 99.8727 91.5716 100.196 91.1731 100.196H90.2102V101.279C90.2101 101.677 89.8334 102 89.3684 102C88.9034 102 88.5268 101.677 88.5266 101.279V100.196H87.5637C87.1652 100.196 86.8421 99.8727 86.842 99.4741C86.842 99.0755 87.1651 98.7525 87.5637 98.7524H88.5266V97.6694C88.5267 97.2708 88.9034 96.9478 89.3684 96.9478Z" fill="url(#paint3_radial_1004_14745)"/>
<path d="M16.611 16.1055C17.4477 16.1057 18.1263 16.6871 18.1266 17.4043V19.3535H19.859C20.5764 19.3537 21.1578 19.9359 21.1578 20.6533C21.1576 21.3705 20.5762 21.9519 19.859 21.9521H18.1266V23.9014C18.1263 24.6186 17.4477 25.2 16.611 25.2002C15.774 25.2002 15.0946 24.6187 15.0944 23.9014V21.9521H13.3619C12.6446 21.9519 12.0631 21.3698 12.0631 20.6523C12.0634 19.9352 12.6447 19.3537 13.3619 19.3535H15.0944V17.4043C15.0946 16.6869 15.774 16.1055 16.611 16.1055Z" fill="url(#paint4_radial_1004_14745)"/>
<path d="M11.0531 11.0527C11.4249 11.0529 11.7258 11.3112 11.726 11.6299V12.4961H12.4965C12.8153 12.4962 13.0736 12.7554 13.0736 13.0742C13.0734 13.3929 12.8151 13.6513 12.4965 13.6514H11.726V14.5176C11.7258 14.8363 11.4249 15.0945 11.0531 15.0947C10.6811 15.0947 10.3794 14.8364 10.3793 14.5176V13.6514H9.60876C9.29013 13.6512 9.03185 13.3928 9.03162 13.0742C9.03162 12.7554 9.28999 12.4963 9.60876 12.4961H10.3793V11.6299C10.3795 11.3111 10.6811 11.0527 11.0531 11.0527Z" fill="url(#paint5_radial_1004_14745)"/>
<path d="M13.7736 33.1485C14.3244 33.4956 14.5296 34.1598 14.2321 34.6319L13.4243 35.9143L14.5646 36.6326C15.0366 36.9302 15.1776 37.5539 14.8802 38.026C14.5828 38.498 13.9592 38.6402 13.4871 38.343L12.3468 37.6247L11.539 38.9071C11.2415 39.3791 10.5543 39.4801 10.0035 39.1332C9.45267 38.7863 9.24715 38.1228 9.54437 37.6506L10.3522 36.3682L9.21194 35.6499C8.73979 35.3525 8.59817 34.7282 8.89547 34.256C9.19294 33.7838 9.81718 33.642 10.2894 33.9395L11.4297 34.6578L12.2375 33.3754C12.535 32.9032 13.2226 32.8014 13.7736 33.1485Z" fill="url(#paint6_radial_1004_14745)"/>
<path d="M29.8167 14.3428C30.0598 14.0243 30.5582 13.9959 30.9299 14.2793C31.3018 14.5628 31.4064 15.0514 31.1633 15.3701L30.5032 16.2354L31.2727 16.8223C31.5915 17.0653 31.6525 17.5211 31.4094 17.8398C31.1663 18.1584 30.7115 18.2195 30.3928 17.9766L29.6233 17.3896L28.9631 18.2559C28.7201 18.5746 28.2217 18.6028 27.8499 18.3193C27.478 18.0358 27.3735 17.5483 27.6165 17.2295L28.2766 16.3623L27.5071 15.7764C27.1883 15.5333 27.1263 15.0776 27.3694 14.7588C27.6125 14.4402 28.0683 14.3791 28.387 14.6221L29.1565 15.208L29.8167 14.3428Z" fill="url(#paint7_radial_1004_14745)"/>
<path d="M16.1793 95.5733C15.0771 94.2295 16.3597 91.5837 18.6324 90.512L20.1746 89.7848L24.5559 87.7182C25.0908 87.4659 25.599 88.0865 25.2605 88.5773L22.4835 92.6001L21.5053 94.0161C20.0643 96.1042 17.2814 96.917 16.1793 95.5733Z" fill="url(#paint8_linear_1004_14745)"/>
<path d="M16.7633 86.2667C16.8939 85.1043 18.5334 84.4144 19.8992 84.9466L20.8263 85.3077L23.4595 86.3319C23.7806 86.4565 23.7202 86.9934 23.3758 87.0747L20.5523 87.7411L19.5576 87.976C18.0928 88.3225 16.6326 87.429 16.7633 86.2667Z" fill="url(#paint9_linear_1004_14745)"/>
<path d="M25.0018 94.1387C24.3166 94.0007 24.0669 92.9212 24.5239 92.0737L24.834 91.4985L25.7139 89.8645C25.821 89.6653 26.1376 89.729 26.1518 89.9528L26.2684 91.7875L26.3096 92.4339C26.3705 93.3858 25.687 94.2766 25.0018 94.1387Z" fill="url(#paint10_linear_1004_14745)"/>
<path d="M92.1577 13.022C91.2765 11.8514 89.0764 12.4305 87.9488 14.1294L87.1837 15.2823L85.0097 18.5574C84.7443 18.9573 85.1513 19.4972 85.573 19.3057L89.0297 17.7346L90.2466 17.181C92.0409 16.3658 93.0388 14.1925 92.1577 13.022Z" fill="url(#paint11_linear_1004_14745)"/>
<path d="M99.9291 20.0055C99.485 18.2379 96.0543 17.2821 93.3666 18.177L91.5428 18.7842L86.361 20.5089C85.7284 20.7195 85.9341 21.5353 86.6449 21.639L92.4733 22.4875L94.5254 22.7857C97.5505 23.2264 100.373 21.7732 99.9291 20.0055Z" fill="url(#paint12_linear_1004_14745)"/>
<path d="M85.8693 11.6718C85.0027 11.3797 84.0132 12.4395 83.9765 13.6988L83.9514 14.5535L83.8792 16.9807C83.8702 17.2766 84.2705 17.4116 84.4331 17.1673L85.7659 15.1647L86.2356 14.4592C86.9275 13.4205 86.736 11.9639 85.8693 11.6718Z" fill="url(#paint13_linear_1004_14745)"/>
<defs>
<filter id="filter0_f_1004_14745" x="0" y="0" width="108" height="108" filterUnits="userSpaceOnUse" color-interpolation-filters="sRGB">
<feFlood flood-opacity="0" result="BackgroundImageFix"/>
<feBlend mode="normal" in="SourceGraphic" in2="BackgroundImageFix" result="shape"/>
<feGaussianBlur stdDeviation="3" result="effect1_foregroundBlur_1004_14745"/>
</filter>
<filter id="filter1_d_1004_14745" x="59.6909" y="62.3931" width="37.5649" height="37.5649" filterUnits="userSpaceOnUse" color-interpolation-filters="sRGB">
<feFlood flood-opacity="0" result="BackgroundImageFix"/>
<feColorMatrix in="SourceAlpha" type="matrix" values="0 0 0 0 0 0 0 0 0 0 0 0 0 0 0 0 0 0 127 0" result="hardAlpha"/>
<feOffset dx="-1" dy="-1"/>
<feGaussianBlur stdDeviation="1.5"/>
<feColorMatrix type="matrix" values="0 0 0 0 0 0 0 0 0 0 0 0 0 0 0 0 0 0 0.1 0"/>
<feBlend mode="normal" in2="BackgroundImageFix" result="effect1_dropShadow_1004_14745"/>
<feBlend mode="normal" in="SourceGraphic" in2="effect1_dropShadow_1004_14745" result="shape"/>
</filter>
<radialGradient id="paint0_radial_1004_14745" cx="0" cy="0" r="1" gradientUnits="userSpaceOnUse" gradientTransform="translate(54 54) rotate(90) scale(48.0744)">
<stop stop-color="#FF744D"/>
<stop offset="1" stop-color="#FFE1E1" stop-opacity="0.5"/>
</radialGradient>
<radialGradient id="paint1_radial_1004_14745" cx="0" cy="0" r="1" gradientUnits="userSpaceOnUse" gradientTransform="translate(54.5053 54) rotate(90) scale(38.9053 39.4105)">
<stop stop-color="#FDBFBF"/>
<stop offset="1" stop-color="#F5685F"/>
</radialGradient>
<radialGradient id="paint2_radial_1004_14745" cx="0" cy="0" r="1" gradientUnits="userSpaceOnUse" gradientTransform="translate(97.9579 90.8844) rotate(90) scale(4.04211)">
<stop stop-color="#FF7070"/>
<stop offset="1" stop-color="#FDBFBF"/>
</radialGradient>
<radialGradient id="paint3_radial_1004_14745" cx="0" cy="0" r="1" gradientUnits="userSpaceOnUse" gradientTransform="translate(89.3684 99.4741) rotate(90) scale(2.52632)">
<stop stop-color="#FF7070"/>
<stop offset="1" stop-color="#FDBFBF"/>
</radialGradient>
<radialGradient id="paint4_radial_1004_14745" cx="0" cy="0" r="1" gradientUnits="userSpaceOnUse" gradientTransform="translate(16.6105 20.6528) rotate(90) scale(4.54737)">
<stop stop-color="#FF7070"/>
<stop offset="1" stop-color="#FDBFBF"/>
</radialGradient>
<radialGradient id="paint5_radial_1004_14745" cx="0" cy="0" r="1" gradientUnits="userSpaceOnUse" gradientTransform="translate(11.0527 13.0738) rotate(90) scale(2.02105)">
<stop stop-color="#FF7070"/>
<stop offset="1" stop-color="#FDBFBF"/>
</radialGradient>
<radialGradient id="paint6_radial_1004_14745" cx="0" cy="0" r="1" gradientUnits="userSpaceOnUse" gradientTransform="translate(11.8881 36.1406) rotate(122.209) scale(3.53662)">
<stop stop-color="#FF7070"/>
<stop offset="1" stop-color="#FDBFBF"/>
</radialGradient>
<radialGradient id="paint7_radial_1004_14745" cx="0" cy="0" r="1" gradientUnits="userSpaceOnUse" gradientTransform="translate(29.3897 16.2994) rotate(90) scale(2.21542 2.16871)">
<stop stop-color="#FF7070"/>
<stop offset="1" stop-color="#FDBFBF"/>
</radialGradient>
<linearGradient id="paint8_linear_1004_14745" x1="18.0994" y1="96.6227" x2="22.5503" y2="86.6073" gradientUnits="userSpaceOnUse">
<stop stop-color="#FDBFBF"/>
<stop offset="1" stop-color="#FF7070"/>
</linearGradient>
<linearGradient id="paint9_linear_1004_14745" x1="19.3085" y1="88.4845" x2="20.7921" y2="85.146" gradientUnits="userSpaceOnUse">
<stop stop-color="#FDBFBF"/>
<stop offset="1" stop-color="#FF7070"/>
</linearGradient>
<linearGradient id="paint10_linear_1004_14745" x1="26.59" y1="92.6169" x2="24.7334" y2="91.5127" gradientUnits="userSpaceOnUse">
<stop stop-color="#FDBFBF"/>
<stop offset="1" stop-color="#FF7070"/>
</linearGradient>
<linearGradient id="paint11_linear_1004_14745" x1="92.703" y1="14.821" x2="84.4287" y2="16.6756" gradientUnits="userSpaceOnUse">
<stop stop-color="#FDBFBF"/>
<stop offset="1" stop-color="#FF7070"/>
</linearGradient>
<linearGradient id="paint12_linear_1004_14745" x1="99.4915" y1="22.1607" x2="86.8041" y2="18.2472" gradientUnits="userSpaceOnUse">
<stop stop-color="#FDBFBF"/>
<stop offset="1" stop-color="#FF7070"/>
</linearGradient>
<linearGradient id="paint13_linear_1004_14745" x1="86.6731" y1="14.4354" x2="83.8468" y2="14.4716" gradientUnits="userSpaceOnUse">
<stop stop-color="#FDBFBF"/>
<stop offset="1" stop-color="#FF7070"/>
</linearGradient>
</defs>
</svg>
