<svg width="302" height="150" viewBox="0 0 302 150" fill="none" xmlns="http://www.w3.org/2000/svg">
<path d="M130.314 0H171.984L143.045 125.422C139.745 139.804 126.896 150 112.102 150H70.4321L99.3712 24.5776C102.731 10.1965 115.521 0 130.314 0Z" fill="#F36F21"/>
<path d="M0 126.896H41.611C56.4047 126.896 69.1945 116.699 72.554 102.318L90.8252 23.0452H49.2141C34.4204 23.0452 21.6306 33.2416 18.2711 47.6228L0 126.896Z" fill="#0066B3"/>
<path d="M151.473 126.896H193.084C207.878 126.896 220.668 116.699 224.027 102.318L242.299 23.0452H200.688C185.894 23.0452 173.104 33.2416 169.745 47.6228L151.473 126.896Z" fill="#0DB14B"/>
<path d="M26.4636 60.4127L17.0923 100.963C23.8703 100.963 29.7053 96.3066 31.2377 89.7054L33.3005 80.7467H51.8074C58.7622 80.7467 64.774 75.9726 66.3064 69.1946H35.9528L37.9567 60.5306H63.3595C70.3143 60.5306 76.3261 55.7565 77.8585 48.9785H40.7269C33.8899 49.0375 27.996 53.7526 26.4636 60.4127Z" fill="white"/>
<path d="M150 59.6464C151.238 54.224 147.112 49.0374 141.572 49.0374H104.263L92.2986 100.963C99.0766 100.963 104.97 96.3065 106.503 89.6464L108.566 80.7466H133.792C140.393 80.7466 146.169 76.1493 147.642 69.725L150 59.6464ZM136.149 69.2535H111.159L113.163 60.5894H138.153L136.149 69.2535Z" fill="white"/>
<path d="M216.719 49.0374H177.525L177.289 49.9804C176.051 55.4028 180.177 60.5894 185.717 60.5894H193.969L184.656 100.963H185.246C191.729 100.963 197.387 96.4833 198.861 90.1179L205.697 60.5894H224.794L225.029 59.5875C226.326 54.1651 222.259 49.0374 216.719 49.0374Z" fill="white"/>
<path d="M239.411 109.568C234.637 109.568 230.747 113.458 230.747 118.232C230.747 123.006 234.637 126.896 239.411 126.896C244.185 126.896 248.075 123.006 248.075 118.232C248.075 113.458 244.244 109.568 239.411 109.568ZM239.411 124.715C235.815 124.715 232.927 121.827 232.927 118.232C232.927 114.636 235.815 111.748 239.411 111.748C243.006 111.748 245.894 114.636 245.894 118.232C245.953 121.827 243.006 124.715 239.411 124.715Z" fill="#0066B3"/>
<path d="M239.764 119.411H238.35V122.593H236.582V113.929H239.823C240.825 113.929 241.65 114.165 242.181 114.636C242.711 115.108 243.006 115.756 243.006 116.581C243.006 117.171 242.888 117.642 242.652 118.055C242.417 118.468 242.004 118.762 241.473 118.998L243.36 122.534V122.593H241.473L239.764 119.411ZM238.35 117.937H239.764C240.236 117.937 240.53 117.819 240.825 117.583C241.061 117.348 241.179 117.053 241.179 116.64C241.179 116.228 241.061 115.933 240.825 115.697C240.589 115.462 240.236 115.344 239.764 115.344H238.35V117.937Z" fill="#0066B3"/>
<path d="M268.939 100.491V61.1785H275.069V100.491H268.939Z" fill="#0066B3"/>
<path d="M298.173 97.9566C295.756 100.078 292.515 101.08 288.448 101.08C284.499 101.08 281.257 100.373 278.664 99.0175L280.786 93.713C283.084 94.9507 285.56 95.599 288.212 95.599C290.393 95.599 292.161 95.0686 293.458 94.0077C294.813 92.9468 295.461 91.5322 295.461 89.7051C295.461 87.2297 293.34 85.1079 289.155 83.2218C286.031 81.8073 283.792 80.4517 282.377 79.0961C280.196 77.0922 279.076 74.5578 279.076 71.6108C279.076 68.2513 280.196 65.5401 282.495 63.5362C284.735 61.5322 287.74 60.5303 291.513 60.5303C295.108 60.5303 298.055 61.2375 300.353 62.5931L298.408 67.603C296.287 66.4242 294.047 65.8348 291.748 65.8348C289.803 65.8348 288.212 66.3063 287.033 67.3083C285.854 68.3102 285.265 69.6069 285.265 71.3161C285.265 73.7326 287.446 75.9134 291.866 77.9173C294.931 79.3318 297.171 80.6874 298.467 81.9252C300.648 83.9291 301.709 86.4635 301.709 89.4104C301.768 93.0057 300.589 95.8348 298.173 97.9566Z" fill="#0066B3"/>
</svg>
